<svg width="20" height="21" viewBox="0 0 20 21" fill="none" xmlns="http://www.w3.org/2000/svg">
    <path id="Subtract" fill-rule="evenodd" clip-rule="evenodd" d="M10 20.5C15.5228 20.5 20 16.0228 20 10.5C20 4.97715 15.5228 0.5 10 0.5C4.47715 0.5 0 4.97715 0 10.5C0 16.0228 4.47715 20.5 10 20.5ZM10.3827 3.57523C10.2512 3.21987 9.74862 3.21987 9.61712 3.57523L8.69694 6.062C8.1595 7.51439 7.01439 8.6595 5.562 9.19694L3.07523 10.1171C2.71987 10.2486 2.71987 10.7512 3.07523 10.8827L5.562 11.8029C7.01439 12.3403 8.1595 13.4855 8.69694 14.9378L9.61712 17.4246C9.74862 17.78 10.2512 17.78 10.3827 17.4246L11.3029 14.9378C11.8403 13.4855 12.9855 12.3403 14.4378 11.8029L16.9246 10.8827C17.28 10.7512 17.28 10.2486 16.9246 10.1171L14.4378 9.19694C12.9855 8.6595 11.8403 7.51439 11.3029 6.062L10.3827 3.57523Z" fill="url(#paint0_radial_1475_9720)"/>
    <defs>
        <radialGradient id="paint0_radial_1475_9720" cx="0" cy="0" r="1" gradientUnits="userSpaceOnUse" gradientTransform="translate(3.5 3) rotate(45) scale(20.5061)">
            <stop stop-color="#BFDE7C"/>
            <stop offset="1" stop-color="#FFD15C"/>
        </radialGradient>
    </defs>
</svg>
